<svg xmlns="http://www.w3.org/2000/svg" data-name="Layer 1" viewBox="0 0 64 64"><circle cx="32" cy="32" r="29" fill="#68d8d6"/><circle cx="32" cy="32" r="20" fill="#c4fff9"/><circle cx="32" cy="32" r="15" fill="#f9c74f"/><path d="M16,32A16,16,0,1,0,32,16,16.019,16.019,0,0,0,16,32Zm30,0A14,14,0,1,1,32,18,14.015,14.015,0,0,1,46,32Z"/><path d="M53.213,10.787c-.085-.085-.18-.157-.269-.237A29.939,29.939,0,0,0,10.8,10.8l-.01-.01c-.085.085-.157.18-.237.269A29.939,29.939,0,0,0,10.8,53.2l-.01.01c.108.108.225.2.339.3A29.937,29.937,0,0,0,53.2,53.2l.01.01c.085-.085.157-.18.237-.269A29.939,29.939,0,0,0,53.2,10.8ZM32,4A27.836,27.836,0,0,1,47.238,8.527,12.1,12.1,0,0,0,39.071,12.2l.08.08a20.6,20.6,0,0,0-14.12-.067C25.342,7.619,28.347,4,32,4ZM51,32A19,19,0,1,1,32,13,19.021,19.021,0,0,1,51,32ZM12,12.434a27.984,27.984,0,0,1,14.2-7.825A12.092,12.092,0,0,0,23,13h.114a21.1,21.1,0,0,0-10.03,9.94C10.139,19.57,9.653,15.058,12,12.434ZM8.528,16.762A12.09,12.09,0,0,0,12.2,24.929l.08-.08a20.6,20.6,0,0,0-.067,14.12C7.619,38.658,4,35.653,4,32A27.829,27.829,0,0,1,8.528,16.762ZM12.434,52a27.984,27.984,0,0,1-7.825-14.2A12.092,12.092,0,0,0,13,41v-.114a21.105,21.105,0,0,0,9.94,10.03C19.57,53.862,15.058,54.346,12.434,52ZM32,60a27.827,27.827,0,0,1-15.241-4.53,12.087,12.087,0,0,0,8.17-3.671l-.08-.08a20.6,20.6,0,0,0,14.12.067C38.658,56.381,35.653,60,32,60Zm20-8.434a27.984,27.984,0,0,1-14.2,7.825A12.092,12.092,0,0,0,41,51h-.114a21.1,21.1,0,0,0,10.03-9.94C53.861,44.43,54.347,48.942,52,51.566Zm3.469-4.328A12.09,12.09,0,0,0,51.8,39.071l-.08.08a20.6,20.6,0,0,0,.067-14.12C56.381,25.342,60,28.347,60,32A27.829,27.829,0,0,1,55.472,47.238Zm3.919-21.045A12.092,12.092,0,0,0,51,23v.114a21.1,21.1,0,0,0-9.94-10.03C44.432,10.139,48.943,9.655,51.566,12A27.984,27.984,0,0,1,59.391,26.193Z"/><path d="M27.845,23.52A1,1,0,0,0,26,24.054V29H24a1,1,0,0,0,0,2h2v2H24a1,1,0,0,0,0,2h2v5a1,1,0,0,0,2,0V35h4.74l3.415,5.4A1,1,0,0,0,38,39.865V35h2a1,1,0,0,0,0-2H38V31h2a1,1,0,0,0,0-2H38V24a1,1,0,0,0-2,0v5H31.311ZM28,27.506,28.945,29H28Zm8,8.907L35.106,35H36ZM36,31v2H33.841l-1.265-2Zm-8,2V31h2.21l1.265,2Z"/></svg>